# 3ds Max Wavefront OBJ Exporter v0.99 - (c)2007 guruware
# File Created: 10.03.2024 14:27:44

mtllib Cola.mtl

#
# object Cola
#

v  -2.1553 1.9872 -0.1475
v  -2.1720 2.0058 0.0663
v  -2.2562 2.2057 0.0804
v  -2.2398 2.1872 -0.1333
v  -2.8577 2.1265 0.0024
v  -2.8641 2.1336 0.0860
v  -2.5482 1.9911 0.1101
v  -2.5315 1.9726 -0.1036
v  -2.5432 2.1806 0.1135
v  -2.5267 2.1621 -0.1001
v  -3.0328 2.2957 0.0746
v  -2.8622 2.2079 0.0875
v  -3.0379 2.2856 0.0750
v  -2.8557 2.2007 0.0038
v  -3.0369 2.2844 0.0614
v  -3.0317 2.2945 0.0611
# 16 vertices

vn -0.9217 -0.3860 -0.0378
vn -0.9217 -0.3860 -0.0377
vn 0.4138 0.9091 -0.0469
vn 0.4137 0.9092 -0.0469
vn -0.0492 0.9947 -0.0904
vn 0.0973 -0.9909 0.0934
vn 0.0971 -0.9909 0.0932
vn -0.1168 0.0212 -0.9929
vn -0.1166 0.0213 -0.9930
vn 0.1166 -0.0213 0.9929
vn 0.1168 -0.0209 0.9929
vn 0.0726 0.0056 -0.9973
vn 0.0725 0.0056 -0.9974
vn -0.0914 -0.9927 0.0789
vn -0.0913 -0.9927 0.0790
vn 0.0832 0.0158 -0.9964
vn 0.0833 0.0161 -0.9964
vn 0.2981 -0.0253 0.9542
vn 0.2981 -0.0255 0.9542
vn 0.8895 -0.4442 0.1073
vn 0.2888 -0.0350 0.9567
vn 0.2888 -0.0350 0.9568
vn 0.6586 0.7524 -0.0145
vn 0.6585 0.7524 -0.0144
vn -0.4594 -0.8873 0.0413
vn -0.4592 -0.8874 0.0416
# 26 vertex normals

vt 1.0000 0.0000 0.0000
vt 1.0000 1.0000 0.0000
vt 0.0000 1.0000 0.0000
vt 0.0000 0.0000 0.0000
# 4 texture coords

o Cola
g Cola
usemtl goddard_base_Goddard_None
s off
f 1/1/1 2/2/1 3/3/1 
f 3/3/2 4/4/2 1/1/2 
f 5/1/3 6/2/3 7/2/3 
f 7/2/4 8/1/4 5/1/4 
f 8/1/5 7/2/5 2/2/5 
f 2/2/5 1/1/5 8/1/5 
f 9/3/6 10/4/6 4/4/6 
f 4/4/7 3/3/7 9/3/7 
f 7/2/8 9/3/8 3/3/8 
f 3/3/9 2/2/9 7/2/9 
f 10/4/10 8/1/10 1/1/10 
f 1/1/11 4/4/11 10/4/11 
f 11/3/12 12/3/13 6/2/13 
f 6/2/13 13/2/13 11/3/13 
f 12/3/14 14/4/14 10/4/14 
f 10/4/15 9/3/15 12/3/15 
f 9/3/16 7/2/16 6/2/16 
f 6/2/17 12/3/17 9/3/17 
f 5/1/18 8/1/18 10/4/18 
f 10/4/19 14/4/19 5/1/19 
f 11/3/20 13/2/20 15/1/20 
f 15/1/20 16/4/20 11/3/20 
f 14/4/21 16/4/22 15/1/22 
f 15/1/22 5/1/22 14/4/22 
f 13/2/23 6/2/23 5/1/23 
f 5/1/24 15/1/24 13/2/24 
f 16/4/25 14/4/25 12/3/25 
f 12/3/26 11/3/26 16/4/26 
# 0 polygons - 28 triangles

