# 3ds Max Wavefront OBJ Exporter v0.99 - (c)2007 guruware
# File Created: 16.03.2024 18:11:01

mtllib DadoP6.mtl

#
# object Box001
#

v  -9.7675 0.0000 10.0915
v  -9.7675 0.0000 -10.5367
v  9.7954 0.0000 -10.5367
v  9.7954 0.0000 10.0915
v  -9.7675 19.8108 10.0915
v  9.7954 19.8108 10.0915
v  9.7954 19.8108 -10.5367
v  -9.7675 19.8108 -10.5367
# 8 vertices

vn -0.5774 -0.5774 0.5774
vn -0.5774 -0.5774 -0.5774
vn 0.5774 -0.5774 -0.5774
vn 0.5774 -0.5774 0.5774
vn -0.5774 0.5774 0.5774
vn 0.5774 0.5774 0.5774
vn 0.5774 0.5774 -0.5774
vn -0.5774 0.5774 -0.5774
# 8 vertex normals

vt 0.5091 0.3270 0.0000
vt 0.5063 0.0110 0.0000
vt 0.7379 0.0090 0.0000
vt 0.7407 0.3250 0.0000
vt 0.5085 0.6795 0.0000
vt 0.7425 0.6795 0.0000
vt 0.7425 0.9913 0.0000
vt 0.5085 0.9913 0.0000
vt 0.5100 0.3815 0.0000
vt 0.7316 0.3815 0.0000
vt 0.7316 0.6044 0.0000
vt 0.5100 0.6044 0.0000
vt 0.7663 0.3468 0.0000
vt 0.9806 0.3468 0.0000
vt 0.9806 0.6508 0.0000
vt 0.7663 0.6508 0.0000
vt 0.0091 0.3573 0.0000
vt 0.2457 0.3573 0.0000
vt 0.2457 0.6570 0.0000
vt 0.0091 0.6570 0.0000
vt 0.2578 0.3436 0.0000
vt 0.4927 0.3436 0.0000
vt 0.4927 0.6605 0.0000
vt 0.2578 0.6605 0.0000
# 24 texture coords

o Box001
g Box001
usemtl 01___Default
s 2
f 1/1/1 2/2/2 3/3/3 4/4/4 
s 4
f 5/5/5 6/6/6 7/7/7 8/8/8 
s 8
f 1/9/1 4/10/4 6/11/6 5/12/5 
s 16
f 4/13/4 3/14/3 7/15/7 6/16/6 
s 32
f 3/17/3 2/18/2 8/19/8 7/20/7 
s 64
f 2/21/2 1/22/1 5/23/5 8/24/8 
# 6 polygons

